<svg width="329" height="283" viewBox="0 0 329 283" fill="none" xmlns="http://www.w3.org/2000/svg">
<path d="M158.776 13.4506H4.49618C2.39486 13.4506 0.691406 15.1154 0.691406 17.169V272.644C0.691406 274.697 2.39486 276.362 4.49618 276.362H158.776C160.877 276.362 162.58 274.697 162.58 272.644V17.169C162.58 15.1154 160.877 13.4506 158.776 13.4506Z" fill="#1E1E1E"/>
<path d="M156.904 188.538C159.11 186.852 163.274 185.429 166.738 184.242C169.575 183.27 172.117 182.619 178.539 180.503C182.128 179.32 184.053 178.627 185.821 176.844C187.845 174.804 188.844 172.167 188.887 172.045C188.887 172.045 189.255 171.044 189.458 169.962C190.855 162.527 191.045 112.747 191.045 112.747C191.084 103.208 191.711 71.683 191.711 71.6746C191.711 71.645 191.27 65.4939 191.984 52.6212C192.044 51.5439 192.187 49.309 192.814 46.4658C193.398 43.8254 194.111 41.8736 194.587 40.6822C196.658 35.4858 199.452 30.6655 202.95 26.2464C209.026 18.5786 216.646 12.757 225.411 8.29571C227.738 7.11279 231.703 5.24126 236.815 3.63587C238.852 2.99372 242.402 1.97979 246.908 1.22357C247.756 1.07993 248.469 0.974314 248.979 0.906719C250 0.792652 251.444 0.632114 253.2 0.446227C253.2 0.446227 253.81 0.382857 254.285 0.332161C260.932 -0.356465 268.033 0.239217 268.033 0.239217C275.54 0.868697 281.378 2.51633 283.947 3.31057C289.456 5.01312 301.348 8.94631 311.938 19.4658C315.956 23.4581 319.411 27.8729 321.841 32.9384C322.879 35.1014 325.206 39.5753 326.365 45.7181C326.797 48.0078 326.992 50.0991 327.139 51.6326C327.623 56.7614 327.537 60.5763 327.519 61.6029C327.165 82.2786 328.561 191.821 328.561 191.821C328.713 203.265 328.734 211.994 328.726 215.264C328.726 216.886 328.713 217.418 328.726 218.808C328.769 224.233 328.99 225.834 328.795 229.015C328.73 230.033 328.605 231.571 328.315 233.459C328.315 233.459 327.597 238.081 325.746 242.694C321.984 252.065 315.584 259.365 307.64 265.516C305.231 267.379 303.246 268.689 302.157 269.39C295.674 273.564 290.135 275.782 285.927 277.438C282.005 278.985 279.527 279.96 275.812 280.797C271.103 281.857 267.254 282.107 265.096 282.157C261.04 282.246 257.931 282.14 256.344 282.026C254.77 281.912 253.503 281.773 253.114 281.726C252.491 281.655 250.623 281.431 248.102 280.974C246.977 280.772 244.296 280.26 240.819 279.331C238 278.575 235.388 277.852 233.835 277.176C225.156 273.4 217.217 268.55 210.695 261.68C206.968 257.751 203.798 253.446 201.151 248.753C198.172 243.472 196.702 238.926 196.062 236.809C194.526 231.719 194.051 227.646 193.791 225.31C193.523 222.889 193.419 220.832 193.38 219.307C192.784 219.154 192.537 219.606 192.226 219.86C183.253 227.224 173.761 233.894 163.797 239.923C163.693 239.986 163.607 240.172 163.417 240.202C159.923 240.755 144.614 197.93 156.913 188.534L156.904 188.538Z" fill="#1E1E1E"/>
<path d="M110.772 130.092C110.513 130.307 110.253 130.522 109.994 130.737C110.565 130.476 111.343 130.126 112.272 129.721C112.272 129.721 112.497 129.624 112.726 129.527C115.709 128.246 122.694 125.691 122.694 125.691C127.237 124.031 126.269 124.279 130.155 122.876C132.498 122.028 134.797 121.08 137.153 120.262C140.979 118.934 142.427 118.61 142.79 117.408C143.032 116.612 142.522 115.583 141.489 113.556C140.702 112.013 139.928 110.812 139.383 110.023C137.391 111.431 135.549 112.738 133.699 114.036C126.061 119.39 118.419 124.743 110.776 130.096L110.772 130.092Z" fill="white"/>
<path d="M307.203 224.109C307.354 225.114 307.66 226.132 308.413 226.423C308.487 226.452 308.698 226.524 308.922 226.499C310.072 226.368 310.688 223.72 310.865 222.947C313.191 212.635 313.643 208.002 313.643 208.002C314.311 203.036 314.707 198.052 314.505 193.035C314.505 193.035 314.72 190.261 313.186 186.287C313.07 185.983 312.833 185.413 312.286 185.181C311.386 184.796 310.244 185.578 309.723 185.932C308.797 186.566 308.254 187.343 307.879 187.913C306.665 189.75 306.333 191.912 306.397 194.243C306.436 195.696 306.544 197.242 307.354 198.403C308.426 199.936 308.973 201.553 309.094 203.323C309.197 204.881 309.042 206.085 308.905 206.896C308.439 209.725 307.918 211.955 307.819 212.373C307.819 212.373 306.367 218.627 307.203 224.109Z" fill="white"/>
<path d="M256.571 60.1212C252.895 60.7251 249.228 61.3163 245.583 62.1061C238.859 63.563 232.225 65.3072 225.691 67.4019C222.422 68.4492 219.161 69.5345 215.966 70.8057C211.46 72.6005 206.993 74.4503 202.647 76.5872C199.564 78.1033 196.571 79.7756 193.605 81.4986C193.475 81.5747 193.069 81.7858 192.809 82.2293C192.584 82.6178 192.576 82.9936 192.576 83.1288C192.312 93.9907 192.312 94.1047 192.316 94.3327C192.372 97.593 192.238 99.5187 193.376 100.076C193.773 100.27 194.171 100.224 194.323 100.207C200.852 99.4342 229.605 77.0475 229.605 77.0475C234.011 73.6141 237.95 71.8826 238.491 71.549C238.703 71.418 238.962 71.1267 239.183 71.4687C239.183 71.4687 239.239 71.5574 239.239 71.6757C239.265 73.4156 211.365 97.7661 211.365 97.7661C209.89 99.0542 208.303 100.781 208.692 102.331C208.736 102.496 208.787 102.623 208.822 102.695C208.822 102.695 211.464 102.15 211.68 102.107C212.913 101.858 218.037 101.136 226.444 102.618C229.959 103.239 232.519 103.978 234.815 104.654C237.752 105.516 241.834 106.939 246.612 108.995C250.897 110.841 254.997 113.037 258.876 115.609C262.11 117.754 265.172 120.106 267.719 123.037C269.202 124.743 270.313 126.631 270.832 128.895C273.051 125.795 274.335 122.982 275.096 120.972C275.459 120.005 275.965 118.645 276.35 116.774C276.566 115.706 277.02 113.126 276.826 109.806C276.826 109.806 276.752 108.087 277.09 102.15C277.12 101.588 277.544 101.419 277.998 101.44C278.106 101.444 278.192 101.474 278.257 101.525C278.435 101.656 278.452 101.905 278.456 102.179C278.465 102.678 278.465 102.927 278.409 103.176C278.236 103.907 277.669 115.668 281.133 130.576C282.262 135.441 283.611 139.246 285.046 144.026C285.911 146.898 286.984 149.702 287.991 152.527C289.41 156.51 291.023 160.416 292.8 164.242C293.902 166.62 294.919 169.04 296.255 171.325C298.132 174.538 299.887 177.815 302.158 180.789C303.394 182.406 304.791 183.859 306.408 185.143C307.174 185.751 307.649 185.548 308.216 185.143C308.981 184.598 309.678 183.969 310.426 183.407C311.36 182.71 311.476 182.3 310.914 181.24C310.555 180.565 310.123 179.927 309.79 179.239C309.085 177.79 307.948 175.847 306.625 172.558C305.543 169.876 304.895 167.714 304.609 166.713C304.315 165.682 303.671 163.326 303.122 160.032C302.14 154.174 302.244 149.44 302.149 143.266C302.119 141.15 302.145 139.026 302.27 136.906C302.568 131.965 302.854 127.015 302.966 122.07C303.083 116.741 303.027 111.411 302.88 106.077C302.88 106.077 302.3 92.6012 299.753 84.7209C299.433 83.7327 299.066 82.6727 299.066 82.6727C298.019 79.6743 296.934 77.0264 296.458 75.9875C293.79 70.1596 287.624 65.4719 286.962 64.9102C284.047 62.4439 280.796 60.4633 276.96 59.7073C274.188 59.1625 272.108 59.0443 268 59.1076C265.038 59.1541 261.142 59.3821 256.58 60.1085L256.571 60.1212Z" fill="white"/>
<path d="M114.353 247.406C114.448 249.737 113.778 251.972 113.28 254.202C113.211 254.586 112.683 257.349 111.403 258.616C111.183 258.831 110.78 259.233 110.153 259.342C109.907 259.385 109.565 259.393 108.912 259.182C108.397 259.013 107.58 258.671 106.689 257.936C108.125 259.52 109.928 260.28 111.096 259.807C111.464 259.659 112 259.292 112.441 258.827C112.921 258.324 113.189 257.822 113.345 257.467C114.651 254.485 115.421 251.372 115.568 248.124C115.633 246.662 115.702 245.205 115.771 243.748L115.862 243.706L115.81 243.672C116.684 243.093 117.718 242.861 118.643 242.396C120.352 241.539 122.107 240.762 123.863 240.031C126.938 238.751 129.953 237.34 133.019 236.048C136.164 234.717 139.252 233.264 142.366 231.866C145.761 230.341 149.147 228.796 152.555 227.313C156.556 225.573 160.544 223.794 164.566 222.101C166.932 221.104 169.271 220.048 171.624 219.017C172.926 218.447 174.267 217.94 175.521 217.277C177.009 216.491 178.579 215.862 180.11 215.199C184.353 213.357 188.643 211.634 192.708 209.416C198.054 206.498 203.417 203.604 208.763 200.686C209.442 200.314 210.138 199.938 210.718 199.444C216.068 194.87 220.972 189.928 224.566 183.854C236.058 164.449 247.579 145.066 259.093 125.679C259.901 124.314 260.775 122.988 261.592 121.632C262.57 120.01 262.501 119.672 261.052 118.57C260.788 118.371 260.52 118.177 260.247 117.983C255.351 114.456 250.04 111.639 244.457 109.324C240.75 107.782 237.515 106.384 232.827 105.172C226.115 103.436 221.941 102.355 217.136 103.778C215.19 104.357 211.232 105.907 207.513 110.583C205.977 112.31 203.919 114.866 201.908 118.253C201.436 119.043 200.71 120.26 199.97 121.852C197.821 126.473 197.133 130.443 196.917 132.264C196.38 136.783 196.475 141.239 197.808 145.636C198.543 148.061 199.793 150.236 200.995 152.568C201.614 152.112 201.856 151.554 202.189 151.072C206.877 144.247 211.557 137.417 216.245 130.595C216.803 129.784 217.404 128.994 218.001 128.209C218.204 127.943 218.451 127.702 218.875 128.099C218.459 129.197 217.741 130.164 217.101 131.165C209.576 142.937 201.717 154.498 193.945 166.118C189.305 173.053 189.335 175.883 185.512 178.68C183.241 180.335 181.675 180.737 171.321 184.006C163.835 186.367 160.094 187.55 156.245 188.842C151.184 190.544 151.984 190.409 138.78 195.123C134.749 196.559 130.718 197.987 126.683 199.406C122.696 200.808 118.704 202.189 114.716 203.588C111.905 204.576 109.107 205.607 106.282 206.561C103.532 207.49 100.807 208.475 97.9914 209.585C99.6132 210.523 100.738 211.765 101.823 213.057C102.779 214.198 103.614 215.419 104.41 216.669C106.503 219.968 107.986 223.549 109.491 227.119C110.754 230.118 111.39 231.959 111.715 232.918C112.151 234.219 111.913 233.628 112.969 237.011C112.969 237.011 113.626 239.127 114.461 243.456C114.547 243.896 114.807 245.345 114.162 245.843C114.037 245.94 113.721 246.122 113.38 246.502C113.163 246.747 113.038 246.958 112.995 247.026C103.696 262.426 95.9716 271.651 95.9716 271.651C95.6775 272.077 95.4699 272.588 94.8385 272.981C94.4492 269.357 94.7174 265.91 95.245 262.502C95.6645 259.79 96.4128 257.138 97.2345 254.498C98.6142 250.058 100.656 245.944 103.069 241.991C104.769 239.207 107.208 236.893 109.608 234.654C109.725 234.544 110.14 234.168 110.313 233.556C110.465 233.015 110.356 232.542 110.296 232.314C109.535 229.442 106.702 223.617 106.702 223.617C104.846 219.807 104.366 217.615 102.135 216.589C101.732 216.403 101.313 216.276 101.248 216.255C99.9376 215.858 98.8088 215.921 95.4742 216.094C94.393 216.149 93.8913 216.141 93.5972 215.828C93.329 215.545 93.3593 214.996 93.4761 213.932C93.4934 213.78 93.5193 213.569 93.5799 213.286C94.1724 210.506 95.3099 209.801 95.3099 209.801C96.0581 209.336 97.1437 209.197 98 209.581C98.2336 209.687 98.4066 209.809 98.519 209.902C98.2336 209.666 97.2907 208.96 95.9716 208.994C95.6775 209.003 94.9812 209.019 94.2935 209.463C93.528 209.957 93.195 210.658 92.9917 211.106C92.7971 211.533 92.7235 211.862 92.6197 212.361C92.2781 213.966 92.5203 214.637 91.984 215.144C91.7115 215.397 91.3914 215.473 91.2055 215.507C88.9997 215.871 86.8762 216.47 84.8477 217.454C79.7529 219.921 76.241 223.883 73.6763 228.694C72.275 231.326 71.4317 234.164 70.8737 237.108C69.5287 244.238 70.4975 250.16 72.634 262.037C72.6946 262.375 73.2741 264.449 74.4246 268.597C75.5361 272.614 76.5481 276.136 78.2911 276.36C78.3257 276.364 78.317 276.36 79.2988 276.36C80.2417 276.356 81.1802 276.352 82.123 276.348C82.2874 276.348 90.6302 276.314 90.6519 276.314C92.4208 276.305 93.3074 276.301 93.3074 276.301C93.8351 276.335 93.9908 276.369 94.233 276.301C95.405 275.951 95.751 273.957 95.8289 273.594C96.1576 272.027 98.2768 268.28 106.291 258.629C106.291 258.629 109.219 253.872 113.064 248.909C113.427 248.441 113.825 248.001 113.825 248.001C114.011 247.811 114.193 247.617 114.379 247.427L114.353 247.406Z" fill="white"/>
<path d="M276.436 279.09C277.072 279.255 277.526 278.976 277.998 278.836C283.997 277.1 289.762 274.793 295.268 271.882C303.391 267.59 310.653 262.228 316.504 255.198C323.472 246.828 327.776 237.478 327.253 226.426C327.231 225.995 327.166 225.534 327.469 225.167C327.867 224.689 327.763 224.144 327.754 223.603C327.594 213.421 327.408 203.235 327.278 193.053C327.14 182.161 327.049 171.269 326.945 160.377C326.833 148.72 326.72 137.067 326.617 125.411C326.517 114.084 326.461 102.752 326.318 91.425C326.176 79.8275 326.379 68.2257 325.916 56.6323C325.773 53.1003 325.765 49.5639 325.064 46.0657C322.754 34.5611 316.855 25.0929 307.863 17.4541C295.039 6.55369 279.84 1.7161 263.058 1.11193C258.595 0.951376 254.153 1.3274 249.733 1.98227C238.842 3.60044 228.691 7.16632 219.474 13.0982C210.214 19.0554 202.792 26.6899 197.887 36.475C194.673 42.8885 192.74 49.6146 192.827 56.8731C192.917 64.5499 192.701 72.2309 192.636 79.9119C192.636 80.3049 192.42 80.7781 192.922 81.0907C193.082 81.0231 193.242 80.9809 193.372 80.8921C198.22 77.7614 203.376 75.18 208.696 72.9154C226.316 65.4118 244.568 60.156 263.768 58.3772C267.431 58.0392 271.125 58.0223 274.793 58.4068C277.046 58.6434 277.037 58.7195 277.042 56.5605C277.055 50.8061 281.367 46.56 287.275 46.4924C294.187 46.4121 300.817 51.7821 302.175 58.5547C303.261 63.9627 300.865 68.3989 295.683 70.5916C295.493 70.6719 295.242 70.6846 295.177 70.993C295.294 71.5085 295.687 71.9098 295.999 72.3492C298.936 76.5277 300.034 80.288 300.363 81.1076C300.93 82.5188 301.738 84.5467 302.465 87.3352C302.776 88.5224 303.248 90.5209 303.667 93.7445C304.295 98.5272 304.264 102.292 304.329 103.846C304.636 110.868 304.658 117.894 304.338 124.916C304.07 130.734 303.745 136.552 303.585 142.374C303.481 146.193 303.823 149.992 303.875 153.803C303.949 158.949 304.952 163.968 306.548 168.865C307.409 171.509 308.68 174.006 309.775 176.567C310.726 178.793 312.006 180.809 313.52 182.71C314.74 184.243 315.518 185.972 315.146 188.021C315.069 188.435 315.146 188.891 315.233 189.313C315.575 190.923 315.6 192.558 315.644 194.189C315.644 194.189 315.683 208.051 311.881 224.427C311.803 224.753 311.6 225.572 310.986 226.307C310.821 226.506 310.665 226.65 310.497 226.81C310.216 227.076 309.649 227.566 309.152 227.676C308.979 227.714 308.814 227.752 308.663 227.676C308.62 227.655 308.563 227.617 308.477 227.604C308.352 227.583 308.252 227.621 308.235 227.63C308.101 227.672 307.417 227.478 306.764 226.13C306.068 224.689 306.064 223.282 306.059 222.953C305.994 215.986 306.769 212.525 307.041 211.271C307.681 208.301 307.491 205.212 307.906 202.204C307.928 202.06 307.997 201.583 307.716 201.219C307.59 201.059 307.43 200.966 307.309 200.911C306.954 201.219 306.63 201.443 306.375 201.595C305.821 201.929 305.717 201.891 304.636 202.381C303.568 202.867 303.339 203.057 302.837 203.036C302.655 203.028 302.495 202.994 302.158 203.002C301.743 203.015 301.591 203.087 301.224 203.083C301.172 203.083 300.8 203.074 300.471 203.007C300.471 203.007 299.749 202.863 299.07 202.255C296.111 199.61 293.78 196.513 291.838 193.116C287.928 186.28 285.186 178.983 283.049 171.467C278.517 155.518 276.449 139.26 276.696 122.715C276.704 122.031 276.696 121.346 276.696 120.691C276.337 120.624 276.319 120.835 276.263 120.962C274.542 125.047 272.544 128.989 270.182 132.762C269.503 133.844 268.794 134.875 267.807 135.686C264.278 138.584 260.282 140.515 255.693 141.195C254.581 141.36 254.577 141.347 254.737 142.336C255.169 144.968 255.611 147.6 256.034 150.232C258.128 163.3 260.234 176.364 262.306 189.432C263.807 198.9 265.26 208.372 266.743 217.84C268.145 226.772 269.568 235.699 270.969 244.631C272.483 254.26 273.979 263.893 275.489 273.521C275.783 275.393 276.112 277.256 276.419 279.082L276.436 279.09Z" fill="#1E1E1E"/>
<path d="M242.514 278.244C242.168 277.252 241.797 276.444 241.615 275.604C241.083 273.094 240.362 270.647 239.342 268.285C235.927 260.388 233.434 252.225 231.813 243.795C231.23 240.753 230.858 237.677 229.985 234.673C226.277 221.904 222.655 209.114 218.99 196.337C218.778 195.593 218.744 194.786 218.376 194.224C216.721 195.745 214.884 197.063 213.519 198.749C207.961 205.607 201.733 211.81 194.974 217.518C194.265 218.118 194.005 218.727 194.066 219.627C194.204 221.693 194.425 223.746 194.71 225.796C196.032 235.201 199.118 243.994 204.417 251.976C213.35 265.421 226.043 273.799 241.667 278.173C241.87 278.228 242.095 278.211 242.505 278.244H242.514Z" fill="#1E1E1E"/>
<path d="M148.001 137.553C148.901 136.831 149.65 136.282 150.14 135.932C152.408 134.306 157.014 131.066 159.256 129.575C160.264 128.904 160.589 128.177 160.559 127.028C160.321 117.234 160.282 107.44 160.308 97.641C160.308 97.2862 160.438 96.8977 160.039 96.3951C153.334 100.517 146.62 104.644 139.82 108.825C140.582 110.024 141.569 111.693 142.564 113.762C143.062 114.797 143.547 115.899 144.213 117.61C146.226 122.779 147.231 125.364 147.772 129.03C148.213 132.016 148.166 134.508 148.14 135.277C148.114 136.202 148.053 136.983 148.001 137.553Z" fill="white"/>
<path d="M147.523 134.57C147.445 131.75 146.758 129.034 146.062 126.315C145.56 124.371 144.851 122.491 144.237 120.581C143.861 119.417 143.377 119.013 142.261 119.405C140.484 120.033 138.772 120.834 137.004 121.504C136.282 121.778 136.096 122.103 136.347 122.845C136.926 124.569 137.752 126.18 138.552 127.803C139.952 130.641 141.409 133.449 143.441 135.928C144.034 136.653 144.656 137.357 145.517 137.787C146.364 138.209 146.87 138.011 147.216 137.142C147.544 136.316 147.54 135.439 147.523 134.57Z" fill="#1E1E1E"/>
<path d="M192.04 52.9941L192.034 53.0838L191.948 53.009L192.04 52.9941Z" fill="#5602FE"/>
<path d="M276.422 279.079C276.115 277.258 275.787 275.391 275.493 273.519C273.983 263.891 272.487 254.258 270.974 244.629C269.573 235.697 268.15 226.77 266.749 217.838C265.261 208.37 263.813 198.893 262.312 189.429C260.241 176.361 258.135 163.293 256.042 150.229C255.618 147.597 255.177 144.965 254.745 142.333C254.585 141.348 254.589 141.357 255.701 141.192C260.289 140.512 264.284 138.581 267.813 135.683C268.799 134.871 269.508 133.841 270.187 132.759C272.548 128.986 274.546 125.044 276.267 120.959C276.319 120.832 276.34 120.616 276.699 120.688C276.699 121.347 276.708 122.027 276.699 122.712C276.453 139.257 278.52 155.515 283.051 171.464C285.188 178.985 287.925 186.281 291.838 193.113C293.78 196.506 296.111 199.607 299.068 202.252C299.717 202.831 300.469 203.004 300.469 203.004C300.725 203.067 301.153 203.139 302.156 203C302.67 202.928 303.531 202.801 304.634 202.383C305.326 202.117 306.281 201.673 307.302 200.913C307.375 200.938 307.501 200.984 307.626 201.082C308.119 201.449 308.171 202.138 308.188 202.518C308.283 205.205 307.574 208.729 307.574 208.729C307.397 209.603 307.155 210.943 306.96 212.628C306.497 215.299 306.268 217.58 306.143 219.325C306.043 220.698 305.832 224.285 307.215 226.541C307.566 227.112 307.963 227.509 308.474 227.606C309.377 227.779 310.32 226.96 310.493 226.812C310.787 226.558 311.025 226.241 311.025 226.241C311.025 226.241 311.124 226.111 311.22 225.967C311.44 225.62 311.747 224.936 311.877 224.433C312.257 222.938 315.929 203.769 315.457 195.141C315.319 192.602 315.25 191.334 315.224 191.161C315.176 190.878 315.029 190.025 315.077 188.884C315.094 188.436 315.133 188.115 315.146 188.022C315.349 186.133 313.144 182.944 312.348 181.706C311.976 181.127 311.241 179.606 309.775 176.568C308.132 173.167 307.008 170.264 306.549 168.866C304.954 163.969 303.951 158.95 303.877 153.804C303.825 149.993 303.479 146.194 303.587 142.375C303.747 136.549 304.076 130.735 304.34 124.917C304.664 117.786 304.275 120.029 304.331 103.847C304.335 102.014 304.353 98.3927 303.669 93.7452C303.289 91.1595 302.822 89.1526 302.571 88.1429C301.667 84.4713 300.629 81.7885 300.361 81.1082C298.805 77.1452 297.093 74.2082 295.999 72.3492C295.666 71.7831 295.38 71.3141 295.177 70.993C295.242 70.6846 295.489 70.6761 295.683 70.5916C300.864 68.3989 303.254 63.9632 302.173 58.5551C300.815 51.7824 294.186 46.4125 287.276 46.4927C281.369 46.5603 277.054 50.8065 277.045 56.5609C277.041 58.7199 277.045 58.6439 274.796 58.4073C271.129 58.0228 267.437 58.0397 263.774 58.3777C244.579 60.1564 226.33 65.4165 208.713 72.9159C203.399 75.1805 198.244 77.7578 193.393 80.8928C193.259 80.9773 193.099 81.0237 192.943 81.0913C192.865 81.0406 192.766 80.9604 192.692 80.8378C192.536 80.5759 192.601 80.2801 192.614 80.2125C192.649 80.0393 192.714 75.0665 192.848 65.1124C192.856 64.3899 192.861 63.5618 192.865 62.7379C192.878 59.4424 192.848 57.0426 192.848 56.8736C192.761 49.6192 194.69 42.8888 197.907 36.4752C202.811 26.6944 210.231 19.0555 219.489 13.0983C228.704 7.17059 238.853 3.60046 249.742 1.98228C254.157 1.3274 258.602 0.951375 263.065 1.11193C279.843 1.71188 295.034 6.55374 307.86 17.4543C316.845 25.0931 322.748 34.5571 325.057 46.066C325.758 49.5601 325.766 53.0964 325.909 56.6328C326.376 68.2262 326.168 79.8281 326.311 91.4257C326.449 102.753 326.506 114.084 326.609 125.412C326.713 137.068 326.826 148.721 326.938 160.378C327.046 171.27 327.133 182.162 327.271 193.054C327.323 197.233 327.531 206.021 327.747 223.605C327.799 227.817 327.816 229.985 327.366 232.816C325.637 243.758 319.725 251.22 316.495 255.2C310.346 262.771 304.456 267.021 295.263 271.884C289.758 274.795 283.994 277.098 277.996 278.839C277.525 278.974 277.071 279.253 276.435 279.092L276.422 279.079ZM249.91 38.292C249.634 38.4061 249.5 38.6342 249.383 38.8666C247.627 42.3227 245.867 45.7745 244.116 49.2348C244.017 49.4291 243.921 49.6319 243.869 49.8389C243.8 50.1305 243.913 50.3882 244.211 50.4938C244.458 50.5783 244.644 50.4093 244.76 50.2276C244.912 49.9995 245.024 49.7502 245.136 49.5009C246.689 46.1336 248.246 42.7663 249.776 39.3863C249.915 39.0821 250.248 38.7567 249.91 38.2878V38.292ZM288.409 248.837C288.279 249.014 288.388 249.154 288.491 249.259C291.964 252.842 295.44 256.421 298.921 259.995C299.034 260.109 299.176 260.202 299.324 260.278C299.484 260.363 299.665 260.325 299.769 260.194C299.86 260.075 299.951 259.881 299.912 259.767C299.842 259.573 299.695 259.391 299.54 259.243C296.093 255.939 292.647 252.639 289.188 249.348C288.967 249.141 288.803 248.807 288.413 248.837H288.409ZM207.529 53.8443C205.725 50.4135 203.438 47.3251 201.393 44.0845C201.336 43.9915 201.267 43.9028 201.189 43.831C201.016 43.6747 200.804 43.5859 200.584 43.7211C200.303 43.8901 200.26 44.1436 200.428 44.4183C200.541 44.6042 200.666 44.7858 200.796 44.9633C201.976 46.6153 203.152 48.2672 204.342 49.915C205.332 51.2881 206.257 52.7162 207.533 53.8527L207.529 53.8443ZM306.766 84.7248C306.588 85.0966 306.804 85.3206 306.939 85.5234C308.759 88.2401 310.593 90.9441 312.435 93.6481C312.586 93.8678 312.798 94.0537 313.001 94.2311C313.126 94.341 313.317 94.3874 313.447 94.248C313.55 94.1382 313.68 93.9607 313.654 93.8466C313.594 93.5931 313.481 93.3312 313.325 93.1199C311.354 90.437 309.373 87.7668 307.393 85.0924C307.263 84.9192 307.116 84.7586 306.761 84.7248H306.766ZM244.583 24.6917C244.548 25.0635 244.704 25.224 244.877 25.3466C246.836 26.762 248.968 27.9069 251.061 29.1111C251.199 29.1913 251.359 29.2547 251.519 29.2885C251.817 29.3434 252.064 29.2336 252.224 28.9843C252.397 28.7139 252.328 28.4477 252.116 28.2492C251.921 28.0675 251.679 27.9196 251.437 27.7971C249.634 26.8549 247.835 25.9085 246.019 24.9959C245.604 24.7889 245.184 24.4213 244.574 24.6917H244.583Z" fill="white"/>
<path d="M245.188 278.869C244.678 278.299 243.713 276.203 244.055 276.883C244.042 276.849 234.662 257.755 232.011 237.79C231.557 234.363 231.324 231.07 231.281 230.495C230.546 220.784 231.038 211.135 232.803 201.537C233.646 196.947 234.796 192.434 236.284 188.013C239.527 178.377 244.34 169.574 251.207 161.908C252.31 160.678 253.447 159.482 254.714 158.412C255.043 158.138 255.29 157.736 255.882 157.639C256.258 158.036 256.215 158.594 256.293 159.097C258.17 171.205 260.033 183.314 261.906 195.422C263.735 207.26 265.56 219.102 267.411 230.939C269.24 242.667 271.104 254.391 272.942 266.119C273.517 269.779 274.066 273.439 274.628 277.098C274.654 277.259 274.676 277.424 274.685 277.585C274.723 278.404 274.762 279.372 274.676 279.702C274.352 280.944 270.754 281.143 269.556 281.202C263.813 281.481 261.058 281.354 261.058 281.354C256.583 281.151 254.343 281.054 251.467 280.513C248.82 280.015 246.671 279.372 245.192 278.874L245.188 278.869Z" fill="white"/>
<path d="M242.505 278.244C242.095 278.211 241.87 278.232 241.667 278.173C226.043 273.799 213.35 265.421 204.417 251.976C199.114 243.994 196.028 235.201 194.71 225.796C194.42 223.746 194.204 221.693 194.066 219.627C194.005 218.731 194.26 218.118 194.974 217.518C201.733 211.81 207.965 205.607 213.519 198.749C214.884 197.063 216.721 195.745 218.376 194.224C218.744 194.786 218.774 195.593 218.99 196.337C225.006 217.324 227.435 223.294 229.985 234.673C231.251 240.322 230.689 238.932 231.813 243.795C232.457 246.576 234.121 253.463 241.615 275.604C242.008 276.766 242.328 277.699 242.514 278.244H242.505Z" fill="white"/>
<path d="M209.38 105.565C209.354 106.664 208.832 107.468 208.189 108.461C207.964 108.808 207.787 109.04 207.459 109.463C206.782 110.342 206.178 111.023 205.755 111.479C205.755 111.479 201.72 115.973 199.225 121.443C198.479 123.084 197.844 124.779 197.326 126.538C195.143 133.961 195.052 141.342 197.875 148.664C198.431 150.101 199.264 151.382 199.95 152.748C200.239 153.327 200.356 153.779 199.942 154.384C197.223 158.366 194.552 162.378 191.854 166.377C191.807 166.445 191.682 166.466 191.397 166.605C191.708 146.779 192.018 127.049 192.329 107.527C197.771 104.986 203.092 102.5 208.491 99.9807C208.504 100.057 208.517 100.167 208.508 100.298C208.482 100.699 208.292 100.957 208.15 101.207C208.055 101.38 207.753 101.908 207.757 102.318C207.766 102.936 208.508 103.029 209 103.811C209.41 104.458 209.393 105.138 209.38 105.557V105.565Z" fill="white"/>
<path d="M147.523 134.57C147.54 135.443 147.549 136.316 147.216 137.142C146.87 138.011 146.364 138.209 145.517 137.787C144.652 137.357 144.034 136.653 143.441 135.928C141.414 133.449 139.957 130.641 138.552 127.803C137.747 126.18 136.926 124.569 136.347 122.845C136.096 122.103 136.286 121.778 137.004 121.504C138.768 120.834 140.48 120.029 142.261 119.405C143.377 119.013 143.865 119.417 144.237 120.581C144.851 122.491 145.56 124.367 146.062 126.315C146.762 129.034 147.445 131.75 147.523 134.57Z" fill="white"/>
<path d="M276.655 116.118V116.056L276.712 116.033C276.724 116.037 276.735 116.04 276.747 116.044C276.718 116.072 276.687 116.095 276.658 116.122L276.655 116.118Z" fill="#5602FE"/>
<path d="M115.807 243.722L115.775 243.692L115.833 243.632L115.867 243.672L115.807 243.722Z" fill="#5602FE"/>
<path d="M301.251 37.1229C301.79 36.0778 302.613 35.889 303.359 35.6413C305.562 34.9111 307.783 34.2353 309.99 33.5135C310.831 33.2407 311.646 32.9007 312.474 32.5859C312.823 32.4516 313.198 32.2838 313.483 32.4223C313.664 32.5104 313.819 32.7077 313.824 32.8965C313.836 33.4127 312.681 33.8366 312.086 34.0507C305.368 36.4472 303.79 36.7745 302.053 37.0179C301.699 37.0683 301.414 37.1019 301.255 37.1229H301.251Z" fill="#1E1E1E"/>
<path d="M249.895 38.289C250.229 38.7558 249.899 39.0869 249.762 39.3924C248.245 42.7876 246.703 46.1657 245.165 49.5524C245.054 49.8028 244.938 50.0531 244.793 50.2823C244.673 50.4648 244.493 50.6388 244.249 50.5497C243.953 50.4436 243.842 50.1889 243.91 49.8919C243.957 49.6797 244.056 49.4802 244.154 49.285C245.889 45.8135 247.633 42.3419 249.372 38.8704C249.492 38.6328 249.625 38.4036 249.895 38.2932V38.289Z" fill="#1E1E1E"/>
<path d="M288.465 248.835C288.854 248.806 289.022 249.139 289.238 249.346C292.695 252.634 296.139 255.931 299.584 259.232C299.739 259.38 299.886 259.561 299.955 259.755C299.994 259.869 299.903 260.063 299.813 260.182C299.713 260.312 299.527 260.35 299.367 260.266C299.225 260.19 299.078 260.097 298.966 259.983C295.487 256.412 292.012 252.837 288.542 249.257C288.439 249.152 288.331 249.012 288.46 248.835H288.465Z" fill="#1E1E1E"/>
<path d="M280.601 22.507C280.786 20.3907 281.573 18.4717 282.153 16.4982C282.624 14.8857 283.323 13.3363 283.608 11.6735C283.661 11.3585 283.811 11.052 283.965 10.7665C284.101 10.5229 284.329 10.3382 284.659 10.4222C285.081 10.5271 285.134 10.8379 285.081 11.1822C285.042 11.4509 284.971 11.6483 284.967 11.6567C284.8 12.043 283.037 16.4394 280.601 22.507Z" fill="#1E1E1E"/>
<path d="M207.55 53.8916C206.282 52.7566 205.363 51.3251 204.379 49.9445C203.197 48.2928 202.028 46.6369 200.855 44.9809C200.73 44.8031 200.606 44.621 200.49 44.4346C200.322 44.1593 200.365 43.9095 200.645 43.7358C200.864 43.6003 201.074 43.6892 201.246 43.8459C201.328 43.9179 201.392 44.0111 201.448 44.1C203.48 47.3484 205.758 50.4442 207.545 53.8831L207.55 53.8916Z" fill="#1E1E1E"/>
<path d="M306.82 84.7372C307.17 84.771 307.316 84.9313 307.444 85.1042C309.403 87.7745 311.362 90.4405 313.312 93.1192C313.466 93.3301 313.577 93.5917 313.637 93.8448C313.663 93.9587 313.534 94.1401 313.432 94.2455C313.303 94.3847 313.115 94.3383 312.991 94.2286C312.786 94.0515 312.576 93.8659 312.431 93.6465C310.609 90.9467 308.796 88.2469 306.995 85.5345C306.858 85.332 306.649 85.1042 306.824 84.7372H306.82Z" fill="#1E1E1E"/>
<path d="M244.625 24.7542C245.232 24.4865 245.645 24.8463 246.062 25.0555C247.87 25.9593 249.664 26.8965 251.454 27.8296C251.695 27.9551 251.936 28.0973 252.129 28.2772C252.34 28.4739 252.409 28.7375 252.237 29.0053C252.073 29.2521 251.833 29.3651 251.536 29.3065C251.376 29.2772 251.217 29.2145 251.08 29.1308C248.997 27.9383 246.876 26.8044 244.926 25.4028C244.754 25.2773 244.595 25.1183 244.634 24.7542H244.625Z" fill="#1E1E1E"/>
<path d="M79.1815 223.908C81.5081 227.292 83.1872 230.451 84.4001 233.09C84.9915 234.379 86.5843 237.964 87.918 242.859C88.9626 246.698 89.3986 249.697 89.5367 250.719C90.4259 257.304 90.2144 263.842 88.941 270.359C88.0519 274.916 84.603 275.824 81.0333 274.835C80.5153 274.692 79.6693 274.362 78.901 273.606C78.901 273.606 78.8535 273.56 78.8103 273.509C75.314 269.801 73.881 262.845 73.881 262.845C72.6767 256.991 71.4551 251.07 72.0724 242.788C72.2882 239.865 72.4781 237.555 73.4105 234.526C74.9169 229.652 77.3816 226.096 79.1859 223.904L79.1815 223.908Z" fill="#1E1E1E"/>
<path d="M306.757 131.724C307.296 130.659 308.12 130.467 308.866 130.215C311.069 129.471 313.289 128.782 315.497 128.047C316.338 127.769 317.153 127.422 317.98 127.102C318.33 126.965 318.705 126.794 318.989 126.935C319.171 127.025 319.326 127.226 319.33 127.418C319.343 127.944 318.187 128.376 317.592 128.594C310.875 131.036 309.297 131.369 307.559 131.617C307.206 131.669 306.921 131.703 306.761 131.724H306.757Z" fill="white"/>
</svg>
